<?xml version="1.0" encoding="iso-8859-1"?>
<!-- Generator: Adobe Illustrator 18.1.1, SVG Export Plug-In . SVG Version: 6.00 Build 0)  -->
<svg version="1.1" id="Capa_1" xmlns="http://www.w3.org/2000/svg" xmlns:xlink="http://www.w3.org/1999/xlink" x="0px" y="0px"
	 viewBox="0 0 44.29 44.29" style="enable-background:new 0 0 44.29 44.29;" xml:space="preserve">
<g>
	<path style="fill:#FFF;" d="M4.348,1.79C1.947,1.79,0,3.737,0,6.138v29.481h16.395v2.769h-2.759v2.056
		c0,1.136,1.052,2.056,2.349,2.056h12.319c1.298,0,2.35-0.92,2.35-2.056c0-1.135,0-2.056,0-2.056h-2.759v-2.769h12.047
		c2.401,0,4.348-1.947,4.348-4.348V1.79H4.348z M39.535,28.116c0,1.104-0.896,2-2,2H4.755V9.292c0-1.104,0.896-2,2-2h32.78V28.116z"
		/>
</g>
<g>
</g>
<g>
</g>
<g>
</g>
<g>
</g>
<g>
</g>
<g>
</g>
<g>
</g>
<g>
</g>
<g>
</g>
<g>
</g>
<g>
</g>
<g>
</g>
<g>
</g>
<g>
</g>
<g>
</g>
</svg>
