<?xml version="1.0" standalone="no"?>
<!DOCTYPE svg PUBLIC "-//W3C//DTD SVG 20010904//EN"
 "http://www.w3.org/TR/2001/REC-SVG-20010904/DTD/svg10.dtd">
<svg version="1.0" xmlns="http://www.w3.org/2000/svg"
 width="512.000000pt" height="512.000000pt" viewBox="0 0 512.000000 512.000000"
 preserveAspectRatio="xMidYMid meet">
<metadata>
Created by potrace 1.11, written by Peter Selinger 2001-2013
</metadata>
<g transform="translate(0.000000,512.000000) scale(0.100000,-0.100000)"
fill="#000000" stroke="none">
<path d="M2370 5114 c-695 -62 -1305 -367 -1739 -869 -331 -383 -528 -815
-608 -1335 -24 -161 -24 -539 0 -700 99 -639 390 -1180 852 -1579 383 -331
815 -528 1335 -608 161 -24 539 -24 700 0 357 55 695 174 970 342 671 408
1094 1050 1217 1845 24 161 24 539 0 700 -99 639 -390 1180 -852 1579 -381
329 -818 529 -1325 606 -101 15 -455 27 -550 19z m1496 -1433 c21 -15 76 -67
122 -113 91 -95 101 -123 63 -183 -18 -29 -1761 -1843 -1862 -1937 -42 -40
-57 -48 -89 -48 -21 0 -45 3 -54 6 -8 3 -232 240 -498 526 -344 370 -486 529
-492 552 -14 54 1 85 82 169 106 109 145 137 196 137 38 0 46 -5 141 -105 55
-57 208 -221 340 -363 132 -143 250 -265 263 -271 17 -8 29 -8 46 1 12 7 372
375 799 818 427 443 791 813 809 822 50 25 90 22 134 -11z"/>
</g>
</svg>
